# xmcd
#
# Track frame offsets:
#	150
#	10987
#	21768
#	36553
#
# Disc length: 658 seconds
#
# Revision: 3
# Processed by: cddbd v1.5.2PL0 Copyright (c) Steve Scherf et al.
# Submitted via: EZCDAudioConverter 4.0.9.1
#
DISCID=2b029004
DTITLE=Drunken Dolly - What A Wonderful World
DYEAR=1900
DGENRE=blues
TTITLE0=Drunken Man's Curse
TTITLE1=Humongus Tattooed Arms
TTITLE2=St. Patrick's Day
TTITLE3=That Kiss
EXTD=
EXTT0=
EXTT1=
EXTT2=
EXTT3=
PLAYORDER=
